<?xml version="1.0" encoding="UTF-8"?>
<!DOCTYPE svg PUBLIC "-//W3C//DTD SVG 1.1//EN" "http://www.w3.org/Graphics/SVG/1.1/DTD/svg11.dtd">
<svg xmlns="http://www.w3.org/2000/svg" version="1.1" width="1920px" height="1080px" style="shape-rendering:geometricPrecision; text-rendering:geometricPrecision; image-rendering:optimizeQuality; fill-rule:evenodd; clip-rule:evenodd" xmlns:xlink="http://www.w3.org/1999/xlink">
<g><path style="opacity:0.957" fill="#f7b0ae" d="M 1036.5,237.5 C 1035.5,237.5 1034.5,237.5 1033.5,237.5C 1033.52,235.857 1032.85,234.524 1031.5,233.5C 1032.03,232.808 1032.69,232.308 1033.5,232C 1030.81,231.665 1030.14,230.499 1031.5,228.5C 1031.59,227.504 1031.25,226.671 1030.5,226C 1028.28,225.434 1026.28,224.6 1024.5,223.5C 1027.79,221.224 1031.29,220.557 1035,221.5C 1037.67,224.837 1039.84,228.504 1041.5,232.5C 1040.82,235.181 1039.15,236.848 1036.5,237.5 Z"/></g>
<g><path style="opacity:0.993" fill="#464e5f" d="M 1101.5,279.5 C 1093.34,287.137 1083.67,289.637 1072.5,287C 1064.11,279.331 1061.11,269.831 1063.5,258.5C 1066.03,248.775 1070.03,239.608 1075.5,231C 1085.31,225.573 1095.31,225.239 1105.5,230C 1110.55,234.509 1112.88,240.175 1112.5,247C 1111.33,258.688 1107.66,269.521 1101.5,279.5 Z"/></g>
<g><path style="opacity:0.991" fill="#93b7e3" d="M 1031.5,228.5 C 1030.14,230.499 1030.81,231.665 1033.5,232C 1032.69,232.308 1032.03,232.808 1031.5,233.5C 1032.85,234.524 1033.52,235.857 1033.5,237.5C 1034.5,237.5 1035.5,237.5 1036.5,237.5C 1036.5,237.833 1036.5,238.167 1036.5,238.5C 1035.17,240.167 1035.17,241.833 1036.5,243.5C 1036.5,246.833 1036.5,250.167 1036.5,253.5C 1035.51,260.313 1035.18,267.313 1035.5,274.5C 1035.5,296.833 1035.5,319.167 1035.5,341.5C 1035.5,343.833 1035.5,346.167 1035.5,348.5C 1035.5,349.5 1035.5,350.5 1035.5,351.5C 1033.02,351.051 1031.02,351.717 1029.5,353.5C 1037.21,355.511 1037.21,356.511 1029.5,356.5C 1029.5,357.833 1029.5,359.167 1029.5,360.5C 1031.6,360.201 1033.6,360.534 1035.5,361.5C 1034.31,362.429 1032.98,362.762 1031.5,362.5C 1031.5,363.5 1031.5,364.5 1031.5,365.5C 1036.68,365.557 1036.68,366.224 1031.5,367.5C 1032.62,368.859 1033.96,369.859 1035.5,370.5C 1035.5,373.167 1035.5,375.833 1035.5,378.5C 1035.17,400.34 1035.5,422.006 1036.5,443.5C 1036.67,450.841 1036.5,458.174 1036,465.5C 1035.46,469.59 1033.62,472.924 1030.5,475.5C 1025.98,477.043 1021.98,479.377 1018.5,482.5C 1015.67,483.079 1013.34,484.412 1011.5,486.5C 1009.33,486.75 1007.66,487.75 1006.5,489.5C 1005.17,490.167 1003.83,490.833 1002.5,491.5C 1001.83,491.5 1001.5,491.833 1001.5,492.5C 995.5,495.833 989.5,499.167 983.5,502.5C 982.833,502.5 982.5,502.833 982.5,503.5C 976.5,506.833 970.5,510.167 964.5,513.5C 963.833,513.5 963.5,513.833 963.5,514.5C 861.721,573.106 760.055,631.939 658.5,691C 654.982,693.855 651.482,694.021 648,691.5C 647.333,612.5 647.333,533.5 648,454.5C 649.779,450.388 652.612,447.222 656.5,445C 781.555,372.81 906.555,300.643 1031.5,228.5 Z"/></g>
<g><path style="opacity:1" fill="#ee5b2e" d="M 1090.5,238.5 C 1085.26,240.619 1080.76,239.619 1077,235.5C 1075.6,236.731 1074.43,238.064 1073.5,239.5C 1074.46,232.402 1078.46,229.902 1085.5,232C 1087.77,233.758 1089.43,235.925 1090.5,238.5 Z"/></g>
<g><path style="opacity:1" fill="#f6adaa" d="M 1090.5,238.5 C 1098.12,248.926 1098.45,259.593 1091.5,270.5C 1086.51,271.222 1081.51,271.388 1076.5,271C 1075.02,270.338 1073.68,269.504 1072.5,268.5C 1071.19,258.78 1071.53,249.114 1073.5,239.5C 1074.43,238.064 1075.6,236.731 1077,235.5C 1080.76,239.619 1085.26,240.619 1090.5,238.5 Z"/></g>
<g><path style="opacity:0.858" fill="#f8afad" d="M 1036.5,238.5 C 1039.66,238.079 1041.99,239.245 1043.5,242C 1041.41,243.352 1039.07,243.852 1036.5,243.5C 1035.17,241.833 1035.17,240.167 1036.5,238.5 Z"/></g>
<g><path style="opacity:1" fill="#f9be47" d="M 1016.5,249.5 C 1018.53,249.338 1020.53,249.505 1022.5,250C 1023.13,250.75 1023.63,251.584 1024,252.5C 1024.67,320.833 1024.67,389.167 1024,457.5C 1022.42,464.745 1018.26,469.911 1011.5,473C 896.167,539.667 780.833,606.333 665.5,673C 662.196,674.042 660.029,672.875 659,669.5C 658.333,600.833 658.333,532.167 659,463.5C 660.602,458.123 663.769,453.956 668.5,451C 784.726,384.059 900.726,316.892 1016.5,249.5 Z"/></g>
<g><path style="opacity:0.995" fill="#1a2029" d="M 1059.5,258.5 C 1050.22,261.756 1042.22,267.089 1035.5,274.5C 1035.18,267.313 1035.51,260.313 1036.5,253.5C 1044.84,252.234 1052.5,253.9 1059.5,258.5 Z"/></g>
<g><path style="opacity:0.999" fill="#293346" d="M 1059.5,258.5 C 1060.83,258.5 1062.17,258.5 1063.5,258.5C 1061.11,269.831 1064.11,279.331 1072.5,287C 1083.67,289.637 1093.34,287.137 1101.5,279.5C 1103.5,280.833 1105.17,282.5 1106.5,284.5C 1096.46,305.262 1083.46,323.929 1067.5,340.5C 1057.2,342.108 1047.87,346.108 1039.5,352.5C 1038.26,351.754 1036.93,351.421 1035.5,351.5C 1035.5,350.5 1035.5,349.5 1035.5,348.5C 1038.09,346.964 1039.09,344.631 1038.5,341.5C 1037.5,341.5 1036.5,341.5 1035.5,341.5C 1035.5,319.167 1035.5,296.833 1035.5,274.5C 1042.22,267.089 1050.22,261.756 1059.5,258.5 Z"/></g>
<g><path style="opacity:1" fill="#cc726f" d="M 1072.5,268.5 C 1073.68,269.504 1075.02,270.338 1076.5,271C 1081.51,271.388 1086.51,271.222 1091.5,270.5C 1088.1,277.567 1082.77,282.567 1075.5,285.5C 1073.62,285.124 1072.12,284.124 1071,282.5C 1070.22,277.682 1070.72,273.015 1072.5,268.5 Z"/></g>
<g><path style="opacity:0.993" fill="#454d5f" d="M 1106.5,284.5 C 1121.54,305.333 1119.21,324.166 1099.5,341C 1094.02,345.906 1088.35,350.572 1082.5,355C 1080.42,356.705 1078.09,357.872 1075.5,358.5C 1079.45,353.997 1079.45,349.497 1075.5,345C 1072.94,343.223 1070.27,341.723 1067.5,340.5C 1083.46,323.929 1096.46,305.262 1106.5,284.5 Z"/></g>
<g><path style="opacity:1" fill="#fdeac4" d="M 964.5,306.5 C 964.56,305.957 964.893,305.624 965.5,305.5C 966.829,328.997 966.829,352.33 965.5,375.5C 965.831,352.327 965.498,329.327 964.5,306.5 Z"/></g>
<g><path style="opacity:1" fill="#fefefd" d="M 964.5,306.5 C 965.498,329.327 965.831,352.327 965.5,375.5C 889.357,419.741 813.024,463.741 736.5,507.5C 735.173,484.268 735.173,461.101 736.5,438C 812.364,393.902 888.364,350.069 964.5,306.5 Z"/></g>
<g><path style="opacity:1" fill="#f3adab" d="M 1035.5,341.5 C 1036.5,341.5 1037.5,341.5 1038.5,341.5C 1039.09,344.631 1038.09,346.964 1035.5,348.5C 1035.5,346.167 1035.5,343.833 1035.5,341.5 Z"/></g>
<g><path style="opacity:1" fill="#f5aeab" d="M 1067.5,340.5 C 1070.27,341.723 1072.94,343.223 1075.5,345C 1079.45,349.497 1079.45,353.997 1075.5,358.5C 1074.83,359.167 1074.17,359.833 1073.5,360.5C 1062.2,364.594 1050.53,367.094 1038.5,368C 1037.92,369.417 1036.92,370.25 1035.5,370.5C 1033.96,369.859 1032.62,368.859 1031.5,367.5C 1036.68,366.224 1036.68,365.557 1031.5,365.5C 1031.5,364.5 1031.5,363.5 1031.5,362.5C 1032.98,362.762 1034.31,362.429 1035.5,361.5C 1033.6,360.534 1031.6,360.201 1029.5,360.5C 1029.5,359.167 1029.5,357.833 1029.5,356.5C 1037.21,356.511 1037.21,355.511 1029.5,353.5C 1031.02,351.717 1033.02,351.051 1035.5,351.5C 1036.93,351.421 1038.26,351.754 1039.5,352.5C 1047.87,346.108 1057.2,342.108 1067.5,340.5 Z"/></g>
<g><path style="opacity:0.989" fill="#293346" d="M 1073.5,360.5 C 1073.12,362.258 1072.46,363.925 1071.5,365.5C 1073.41,376.41 1073.91,387.41 1073,398.5C 1070.84,407.476 1068.84,416.476 1067,425.5C 1065.25,446.194 1064.08,466.861 1063.5,487.5C 1062.83,487.833 1062.17,488.167 1061.5,488.5C 1055.26,485.596 1049.26,482.262 1043.5,478.5C 1043.31,466.547 1041.98,454.714 1039.5,443C 1040.46,436.858 1041.12,430.691 1041.5,424.5C 1042.31,408.728 1040.31,393.395 1035.5,378.5C 1035.5,375.833 1035.5,373.167 1035.5,370.5C 1036.92,370.25 1037.92,369.417 1038.5,368C 1050.53,367.094 1062.2,364.594 1073.5,360.5 Z"/></g>
<g><path style="opacity:0.994" fill="#1b212b" d="M 1035.5,378.5 C 1040.31,393.395 1042.31,408.728 1041.5,424.5C 1038.85,430.472 1037.18,436.805 1036.5,443.5C 1035.5,422.006 1035.17,400.34 1035.5,378.5 Z"/></g>
<g><path style="opacity:1" fill="#feeac4" d="M 964.5,402.5 C 964.56,401.957 964.893,401.624 965.5,401.5C 966.829,424.997 966.829,448.33 965.5,471.5C 965.831,448.327 965.498,425.327 964.5,402.5 Z"/></g>
<g><path style="opacity:1" fill="#fefefe" d="M 964.5,402.5 C 965.498,425.327 965.831,448.327 965.5,471.5C 889.483,515.194 813.483,558.861 737.5,602.5C 736.503,580.006 736.169,557.339 736.5,534.5C 812.165,489.998 888.165,445.998 964.5,402.5 Z"/></g>
<g><path style="opacity:1" fill="#348c82" d="M 768.5,430.5 C 778.093,431.106 781.26,436.106 778,445.5C 776.241,454.2 772.074,461.367 765.5,467C 759.137,468.401 755.303,465.901 754,459.5C 752.451,446.597 757.285,436.93 768.5,430.5 Z"/></g>
<g><path style="opacity:1" fill="#3f9188" d="M 777.5,460.5 C 778.833,460.5 780.167,460.5 781.5,460.5C 781.823,464.226 781.489,467.893 780.5,471.5C 770.003,477.248 759.67,483.248 749.5,489.5C 748.341,485.878 748.175,482.211 749,478.5C 751.309,477.025 753.476,475.358 755.5,473.5C 759.401,474.962 763.068,474.462 766.5,472C 770.741,468.655 774.408,464.822 777.5,460.5 Z"/></g>
<g><path style="opacity:0.997" fill="#c3daf2" d="M 1024.5,223.5 C 1026.28,224.6 1028.28,225.434 1030.5,226C 1031.25,226.671 1031.59,227.504 1031.5,228.5C 906.555,300.643 781.555,372.81 656.5,445C 652.612,447.222 649.779,450.388 648,454.5C 647.333,533.5 647.333,612.5 648,691.5C 651.482,694.021 654.982,693.855 658.5,691C 760.055,631.939 861.721,573.106 963.5,514.5C 964.167,514.5 964.5,514.167 964.5,513.5C 970.5,510.167 976.5,506.833 982.5,503.5C 983.167,503.5 983.5,503.167 983.5,502.5C 989.5,499.167 995.5,495.833 1001.5,492.5C 1002.17,492.5 1002.5,492.167 1002.5,491.5C 1003.83,490.833 1005.17,490.167 1006.5,489.5C 1008.67,489.25 1010.34,488.25 1011.5,486.5C 1014.33,485.921 1016.66,484.588 1018.5,482.5C 1022.77,480.862 1026.77,478.862 1030.5,476.5C 1035.01,476.271 1039.34,476.938 1043.5,478.5C 1049.26,482.262 1055.26,485.596 1061.5,488.5C 1063.34,490.588 1065.67,491.921 1068.5,492.5C 1137.72,532.362 1206.89,572.362 1276,612.5C 1277.12,614.407 1277.96,616.407 1278.5,618.5C 1274.63,622.122 1270.29,625.289 1265.5,628C 1201.24,664.601 1137.24,701.601 1073.5,739C 1071.98,740.009 1070.31,740.509 1068.5,740.5C 1068.07,711.341 1069.74,682.341 1073.5,653.5C 1074.83,653.167 1076.17,652.833 1077.5,652.5C 1076.77,653.708 1076.43,655.041 1076.5,656.5C 1079.83,656.214 1083,656.214 1086,656.5C 1087.64,656.022 1088.81,655.022 1089.5,653.5C 1092.59,653.374 1094.43,651.707 1095,648.5C 1095.5,646.19 1095.66,643.857 1095.5,641.5C 1126.78,623.393 1157.95,605.06 1189,586.5C 1189.67,584.833 1189.67,583.167 1189,581.5C 1138.58,551.369 1087.74,521.869 1036.5,493C 1031.59,491.508 1026.59,491.174 1021.5,492C 907.33,558.253 792.997,624.253 678.5,690C 674.402,693.649 674.735,696.982 679.5,700C 730.167,729 780.833,758 831.5,787C 837.922,788.301 843.922,787.301 849.5,784C 900.721,753.94 952.054,724.106 1003.5,694.5C 1005.97,707.637 1008.13,720.97 1010,734.5C 1013.68,744.807 1015.51,755.474 1015.5,766.5C 1016.38,770.49 1015.05,773.323 1011.5,775C 977.241,794.267 943.241,813.934 909.5,834C 899.585,839.968 888.919,842.302 877.5,841C 804.167,796 730.833,751 657.5,706C 654.614,704.615 652.614,702.449 651.5,699.5C 651.286,697.856 651.62,696.356 652.5,695C 647.053,694.539 642.887,692.039 640,687.5C 639.333,607.833 639.333,528.167 640,448.5C 642.767,443.191 646.933,439.358 652.5,437C 775.167,366 897.833,295 1020.5,224C 1021.79,223.51 1023.13,223.343 1024.5,223.5 Z"/></g>
<g><path style="opacity:1" fill="#2e3844" d="M 1030.5,475.5 C 1030.5,475.833 1030.5,476.167 1030.5,476.5C 1026.77,478.862 1022.77,480.862 1018.5,482.5C 1021.98,479.377 1025.98,477.043 1030.5,475.5 Z"/></g>
<g><path style="opacity:1" fill="#313a47" d="M 1018.5,482.5 C 1016.66,484.588 1014.33,485.921 1011.5,486.5C 1013.34,484.412 1015.67,483.079 1018.5,482.5 Z"/></g>
<g><path style="opacity:1" fill="#333c49" d="M 1011.5,486.5 C 1010.34,488.25 1008.67,489.25 1006.5,489.5C 1007.66,487.75 1009.33,486.75 1011.5,486.5 Z"/></g>
<g><path style="opacity:0.812" fill="#748bcb" d="M 1063.5,487.5 C 1065.5,488.833 1067.17,490.5 1068.5,492.5C 1065.67,491.921 1063.34,490.588 1061.5,488.5C 1062.17,488.167 1062.83,487.833 1063.5,487.5 Z"/></g>
<g><path style="opacity:1" fill="#80abdf" d="M 1095.5,641.5 C 1095.5,638.833 1095.5,636.167 1095.5,633.5C 1104.19,630.491 1112.52,626.324 1120.5,621C 1122.6,619.267 1122.93,617.267 1121.5,615C 1125.17,614.667 1128.83,614.333 1132.5,614C 1137.83,611 1143.17,608 1148.5,605C 1150.6,603.267 1150.93,601.267 1149.5,599C 1153.17,598.667 1156.83,598.333 1160.5,598C 1166,594.415 1171.67,591.081 1177.5,588C 1178.98,585.765 1178.65,583.932 1176.5,582.5C 1169.85,577.04 1162.35,573.04 1154,570.5C 1146.51,573.471 1139.35,577.138 1132.5,581.5C 1131.07,582.913 1130.07,584.58 1129.5,586.5C 1127.47,586.338 1125.47,586.505 1123.5,587C 1116.77,590.357 1110.44,594.19 1104.5,598.5C 1102.9,599.287 1102.23,600.62 1102.5,602.5C 1100.5,602.5 1098.5,602.5 1096.5,602.5C 1096.74,601.209 1096.4,600.209 1095.5,599.5C 1095.5,598.167 1095.5,596.833 1095.5,595.5C 1095.5,593.5 1095.5,591.5 1095.5,589.5C 1096.4,590.209 1096.74,591.209 1096.5,592.5C 1111.06,585.219 1125.39,577.386 1139.5,569C 1143.67,567.492 1144.34,565.159 1141.5,562C 1135.35,557.668 1128.68,554.501 1121.5,552.5C 1120.17,552.667 1118.83,552.833 1117.5,553C 1109.43,558.033 1101.1,562.533 1092.5,566.5C 1091.66,564.188 1090.66,561.855 1089.5,559.5C 1097.31,556.34 1104.31,552.006 1110.5,546.5C 1110.47,544.971 1109.8,543.804 1108.5,543C 1104,540.584 1099.67,537.917 1095.5,535C 1092.26,533.632 1088.93,533.299 1085.5,534C 1077.1,538.86 1068.77,543.693 1060.5,548.5C 1058.82,550.008 1056.82,551.008 1054.5,551.5C 1054.5,550.833 1054.5,550.167 1054.5,549.5C 1056.44,545.72 1058.61,542.054 1061,538.5C 1061.5,535.518 1061.66,532.518 1061.5,529.5C 1062.17,532.028 1062.83,534.694 1063.5,537.5C 1067.66,535.588 1071.66,533.421 1075.5,531C 1078.21,529.54 1078.88,527.54 1077.5,525C 1071.73,521.699 1065.9,518.532 1060,515.5C 1059.24,515.57 1058.74,515.903 1058.5,516.5C 1054.85,511.68 1050.18,508.347 1044.5,506.5C 1039.4,503.108 1034.06,499.941 1028.5,497C 1025.5,496.333 1022.5,496.333 1019.5,497C 1014.3,500.366 1008.96,503.532 1003.5,506.5C 1002.39,507.723 1002.22,509.056 1003,510.5C 1008.78,513.972 1014.61,517.305 1020.5,520.5C 1020.5,521.833 1020.5,523.167 1020.5,524.5C 1019.54,528.67 1019.54,533.003 1020.5,537.5C 1018.14,537.337 1015.81,537.503 1013.5,538C 1007.1,540.921 1001.44,544.755 996.5,549.5C 996.685,550.584 997.018,551.584 997.5,552.5C 996.391,552.557 995.391,552.89 994.5,553.5C 991.482,553.335 988.482,553.502 985.5,554C 979.915,557.375 974.415,560.875 969,564.5C 968.289,566.367 968.789,567.867 970.5,569C 974.732,571.275 978.732,573.775 982.5,576.5C 982.672,577.492 982.338,578.158 981.5,578.5C 976.062,575.947 970.729,573.113 965.5,570C 961.548,569.088 957.881,569.755 954.5,572C 949.684,574.662 945.018,577.495 940.5,580.5C 938.72,581.99 938.054,583.99 938.5,586.5C 935.887,585.565 933.221,585.398 930.5,586C 924.353,589.328 918.353,592.828 912.5,596.5C 909.621,597.803 908.955,599.803 910.5,602.5C 907.482,602.335 904.482,602.502 901.5,603C 895.434,606.024 889.768,609.524 884.5,613.5C 881.916,614.048 880.916,615.715 881.5,618.5C 878.813,618.336 876.146,618.503 873.5,619C 867.353,622.328 861.353,625.828 855.5,629.5C 854.309,631.327 852.975,632.993 851.5,634.5C 842.442,636.362 834.442,640.362 827.5,646.5C 825.153,647.607 824.82,649.274 826.5,651.5C 823.887,650.565 821.221,650.398 818.5,651C 811.77,654.357 805.437,658.19 799.5,662.5C 797.787,663.635 797.12,665.302 797.5,667.5C 787.705,668.394 779.039,672.061 771.5,678.5C 770.065,679.913 769.065,681.58 768.5,683.5C 766.143,683.337 763.81,683.503 761.5,684C 755.308,687.259 749.308,690.759 743.5,694.5C 742.143,695.59 741.143,696.924 740.5,698.5C 738.801,698.34 737.134,698.506 735.5,699C 728.77,702.357 722.437,706.19 716.5,710.5C 715.305,710.866 714.639,711.699 714.5,713C 715.09,715.257 716.423,716.924 718.5,718C 723.167,720.667 727.833,723.333 732.5,726C 736.5,726.667 740.5,726.667 744.5,726C 750.582,722.877 756.415,719.377 762,715.5C 762.49,714.207 762.657,712.873 762.5,711.5C 772.431,710.121 781.265,706.121 789,699.5C 789.711,697.633 789.211,696.133 787.5,695C 790.46,695.32 793.46,695.32 796.5,695C 803.706,691.814 810.539,687.981 817,683.5C 817.49,682.207 817.657,680.873 817.5,679.5C 820.187,679.664 822.854,679.497 825.5,679C 831.5,675.667 837.5,672.333 843.5,669C 845.602,667.267 845.935,665.267 844.5,663C 848.167,662.667 851.833,662.333 855.5,662C 861.25,658.374 867.084,654.874 873,651.5C 873.877,649.326 873.377,647.659 871.5,646.5C 871.5,646.167 871.5,645.833 871.5,645.5C 875.112,646.511 878.779,646.678 882.5,646C 888.5,642.667 894.5,639.333 900.5,636C 901.406,634.301 901.739,632.467 901.5,630.5C 904.518,630.665 907.518,630.498 910.5,630C 916.63,626.7 922.63,623.2 928.5,619.5C 929.76,617.647 929.76,615.814 928.5,614C 931.79,614.369 935.123,614.369 938.5,614C 944.751,610.292 950.917,606.459 957,602.5C 957.494,600.866 957.66,599.199 957.5,597.5C 962.734,598.165 967.568,597.165 972,594.5C 972.399,594.728 972.565,595.062 972.5,595.5C 969.967,599.904 967.967,604.571 966.5,609.5C 962.922,608.411 959.255,608.245 955.5,609C 949.434,612.024 943.768,615.524 938.5,619.5C 936.787,620.635 936.12,622.302 936.5,624.5C 933.482,624.335 930.482,624.502 927.5,625C 921.805,628.511 916.139,632.011 910.5,635.5C 908.787,636.635 908.12,638.302 908.5,640.5C 905.482,640.335 902.482,640.502 899.5,641C 893.93,644.275 888.597,647.775 883.5,651.5C 880.916,652.048 879.916,653.715 880.5,656.5C 877.813,656.336 875.146,656.503 872.5,657C 866.434,660.024 860.768,663.524 855.5,667.5C 853.259,668.3 852.259,669.966 852.5,672.5C 849.813,672.336 847.146,672.503 844.5,673C 838.769,676.525 833.103,680.025 827.5,683.5C 825.273,684.401 824.273,686.067 824.5,688.5C 822.143,688.337 819.81,688.503 817.5,689C 811.308,692.259 805.308,695.759 799.5,699.5C 797.273,700.401 796.273,702.067 796.5,704.5C 792.537,704.089 788.87,704.922 785.5,707C 773.271,713.941 761.271,721.108 749.5,728.5C 747.978,729.191 746.978,730.358 746.5,732C 747.487,734.321 749.154,735.987 751.5,737C 756.341,739.921 761.341,742.588 766.5,745C 769.5,745.667 772.5,745.667 775.5,745C 788.662,737.92 801.662,730.587 814.5,723C 816.229,721.211 816.896,719.044 816.5,716.5C 820.637,716.854 824.637,716.354 828.5,715C 834.085,711.625 839.585,708.125 845,704.5C 845.684,703.216 845.517,702.049 844.5,701C 847.5,700.667 850.5,700.333 853.5,700C 859.5,696.667 865.5,693.333 871.5,690C 872.406,688.301 872.739,686.467 872.5,684.5C 877.901,685.034 882.901,683.867 887.5,681C 891.241,678.268 895.241,675.934 899.5,674C 900.406,672.301 900.739,670.467 900.5,668.5C 904.308,668.837 907.974,668.337 911.5,667C 916.703,663.634 922.036,660.468 927.5,657.5C 928.76,655.647 928.76,653.814 927.5,652C 930.79,652.369 934.123,652.369 937.5,652C 943.002,648.415 948.669,645.081 954.5,642C 956.155,640.556 956.822,638.722 956.5,636.5C 959.187,636.664 961.854,636.497 964.5,636C 970.046,632.05 976.046,629.55 982.5,628.5C 983.5,628.5 984.5,628.5 985.5,628.5C 985.5,628.833 985.5,629.167 985.5,629.5C 983.667,631.112 982,632.778 980.5,634.5C 972.236,636.798 964.569,640.465 957.5,645.5C 955.461,646.672 954.128,648.338 953.5,650.5C 951.473,650.338 949.473,650.505 947.5,651C 941.353,654.328 935.353,657.828 929.5,661.5C 927.667,663.112 926,664.778 924.5,666.5C 915.889,668.798 908.222,672.798 901.5,678.5C 899.744,679.552 899.077,681.219 899.5,683.5C 896.482,683.335 893.482,683.502 890.5,684C 884.434,687.024 878.768,690.524 873.5,694.5C 871.468,695.048 870.468,696.381 870.5,698.5C 868.265,698.205 866.265,698.539 864.5,699.5C 857.903,702.775 851.57,706.442 845.5,710.5C 844.883,710.611 844.383,710.944 844,711.5C 843.96,713.724 843.794,715.724 843.5,717.5C 839.888,716.489 836.221,716.322 832.5,717C 815.437,727.193 798.437,737.359 781.5,747.5C 779.623,748.659 779.123,750.326 780,752.5C 785.979,757.13 792.479,760.964 799.5,764C 802.167,764.667 804.833,764.667 807.5,764C 824.663,754.586 841.663,744.92 858.5,735C 861.966,732.738 862.3,730.238 859.5,727.5C 855.334,724.583 851.001,721.916 846.5,719.5C 846.56,718.957 846.893,718.624 847.5,718.5C 852.5,721.333 857.5,724.167 862.5,727C 865.167,727.667 867.833,727.667 870.5,727C 877.063,724.103 883.397,720.77 889.5,717C 890.574,716.261 891.241,715.261 891.5,714C 890.548,712.7 890.548,711.533 891.5,710.5C 894.103,711.562 896.77,711.728 899.5,711C 905.5,707.667 911.5,704.333 917.5,701C 919.155,699.556 919.822,697.722 919.5,695.5C 922.187,695.664 924.854,695.497 927.5,695C 933.63,691.7 939.63,688.2 945.5,684.5C 947.401,683.065 947.734,681.398 946.5,679.5C 949.785,678.676 953.118,678.176 956.5,678C 962.167,674.833 967.833,671.667 973.5,668.5C 974.466,666.604 974.799,664.604 974.5,662.5C 977.85,662.665 981.183,662.498 984.5,662C 991.086,658.793 997.253,654.959 1003,650.5C 1003.68,649.216 1003.52,648.049 1002.5,647C 1004.81,646.503 1007.14,646.337 1009.5,646.5C 1008.78,648.764 1008.45,651.097 1008.5,653.5C 973.739,673.078 939.072,692.911 904.5,713C 902.907,713.949 901.574,715.115 900.5,716.5C 898.879,716.787 897.879,717.787 897.5,719.5C 899.024,721.858 901.024,723.691 903.5,725C 908.167,727.667 912.833,730.333 917.5,733C 920.167,733.667 922.833,733.667 925.5,733C 951.658,718.422 977.658,703.588 1003.5,688.5C 1003.5,690.5 1003.5,692.5 1003.5,694.5C 952.054,724.106 900.721,753.94 849.5,784C 843.922,787.301 837.922,788.301 831.5,787C 780.833,758 730.167,729 679.5,700C 674.735,696.982 674.402,693.649 678.5,690C 792.997,624.253 907.33,558.253 1021.5,492C 1026.59,491.174 1031.59,491.508 1036.5,493C 1087.74,521.869 1138.58,551.369 1189,581.5C 1189.67,583.167 1189.67,584.833 1189,586.5C 1157.95,605.06 1126.78,623.393 1095.5,641.5 Z"/></g>
<g><path style="opacity:1" fill="#c1d9f1" d="M 1044.5,506.5 C 1036.54,503.805 1030.04,505.805 1025,512.5C 1023.23,515.032 1021.73,517.699 1020.5,520.5C 1014.61,517.305 1008.78,513.972 1003,510.5C 1002.22,509.056 1002.39,507.723 1003.5,506.5C 1008.96,503.532 1014.3,500.366 1019.5,497C 1022.5,496.333 1025.5,496.333 1028.5,497C 1034.06,499.941 1039.4,503.108 1044.5,506.5 Z"/></g>
<g><path style="opacity:1" fill="#1e1d1e" d="M 1044.5,506.5 C 1050.18,508.347 1054.85,511.68 1058.5,516.5C 1060.52,520.577 1061.52,524.91 1061.5,529.5C 1061.66,532.518 1061.5,535.518 1061,538.5C 1058.61,542.054 1056.44,545.72 1054.5,549.5C 1049.67,550.22 1045,551.553 1040.5,553.5C 1034.73,552.41 1033.89,550.41 1038,547.5C 1038.5,545.19 1038.66,542.857 1038.5,540.5C 1035.4,540.154 1032.56,540.821 1030,542.5C 1028.04,535.74 1024.88,529.74 1020.5,524.5C 1020.5,523.167 1020.5,521.833 1020.5,520.5C 1021.73,517.699 1023.23,515.032 1025,512.5C 1030.04,505.805 1036.54,503.805 1044.5,506.5 Z"/></g>
<g><path style="opacity:1" fill="#c2daf2" d="M 988.5,514.5 C 992.747,514.178 996.747,515.011 1000.5,517C 1004.24,519.732 1008.24,522.066 1012.5,524C 1014.21,525.133 1014.71,526.633 1014,528.5C 1008.42,532.377 1002.58,535.877 996.5,539C 992.218,539.965 988.218,539.298 984.5,537C 980.5,534.667 976.5,532.333 972.5,530C 970.473,528.604 970.14,526.938 971.5,525C 977.566,521.976 983.232,518.476 988.5,514.5 Z"/></g>
<g><path style="opacity:1" fill="#c1d9f1" d="M 1061.5,529.5 C 1061.52,524.91 1060.52,520.577 1058.5,516.5C 1058.74,515.903 1059.24,515.57 1060,515.5C 1065.9,518.532 1071.73,521.699 1077.5,525C 1078.88,527.54 1078.21,529.54 1075.5,531C 1071.66,533.421 1067.66,535.588 1063.5,537.5C 1062.83,534.694 1062.17,532.028 1061.5,529.5 Z"/></g>
<g><path style="opacity:1" fill="#3b8f86" d="M 778.5,520.5 C 783.068,521.65 784.068,523.984 781.5,527.5C 782.914,528.624 784.414,529.624 786,530.5C 786.595,531.899 786.428,533.232 785.5,534.5C 783.93,534.694 782.43,534.694 781,534.5C 780.376,536.464 780.876,538.131 782.5,539.5C 780.312,543.103 777.812,543.103 775,539.5C 771.748,544.334 768.748,549.334 766,554.5C 767.545,566.908 763.045,576.408 752.5,583C 747.88,584.538 744.713,583.038 743,578.5C 742.957,565.531 748.957,556.531 761,551.5C 766.845,541.139 772.679,530.806 778.5,520.5 Z"/></g>
<g><path style="opacity:1" fill="#e18f87" d="M 1020.5,524.5 C 1024.88,529.74 1028.04,535.74 1030,542.5C 1032.56,540.821 1035.4,540.154 1038.5,540.5C 1038.66,542.857 1038.5,545.19 1038,547.5C 1033.89,550.41 1034.73,552.41 1040.5,553.5C 1045,551.553 1049.67,550.22 1054.5,549.5C 1054.5,550.167 1054.5,550.833 1054.5,551.5C 1054.91,555.97 1057.41,558.303 1062,558.5C 1062.21,561.269 1061.38,563.769 1059.5,566C 1050.41,572.632 1041.07,573.132 1031.5,567.5C 1032.17,566.5 1032.83,565.5 1033.5,564.5C 1033.5,562.833 1033.5,561.167 1033.5,559.5C 1033.5,558.167 1033.5,556.833 1033.5,555.5C 1033.39,554.883 1033.06,554.383 1032.5,554C 1030.24,553.764 1028.07,553.264 1026,552.5C 1023.67,547.668 1021.83,542.668 1020.5,537.5C 1019.54,533.003 1019.54,528.67 1020.5,524.5 Z"/></g>
<g><path style="opacity:1" fill="#c2daf2" d="M 957.5,532.5 C 959.527,532.338 961.527,532.505 963.5,533C 969.5,536.333 975.5,539.667 981.5,543C 982.554,544.388 982.72,545.888 982,547.5C 976.582,550.793 971.082,553.96 965.5,557C 962.5,557.667 959.5,557.667 956.5,557C 950.742,554.233 945.242,551.066 940,547.5C 939.333,546.167 939.333,544.833 940,543.5C 945.813,539.683 951.647,536.017 957.5,532.5 Z"/></g>
<g><path style="opacity:1" fill="#c2d9f1" d="M 1089.5,559.5 C 1082.89,547.693 1073.22,544.026 1060.5,548.5C 1068.77,543.693 1077.1,538.86 1085.5,534C 1088.93,533.299 1092.26,533.632 1095.5,535C 1099.67,537.917 1104,540.584 1108.5,543C 1109.8,543.804 1110.47,544.971 1110.5,546.5C 1104.31,552.006 1097.31,556.34 1089.5,559.5 Z"/></g>
<g><path style="opacity:1" fill="#fde9c1" d="M 736.5,534.5 C 736.169,557.339 736.503,580.006 737.5,602.5C 737.44,603.043 737.107,603.376 736.5,603.5C 735.171,580.337 735.171,557.337 736.5,534.5 Z"/></g>
<g><path style="opacity:1" fill="#c3d8f0" d="M 1020.5,537.5 C 1021.83,542.668 1023.67,547.668 1026,552.5C 1028.07,553.264 1030.24,553.764 1032.5,554C 1033.06,554.383 1033.39,554.883 1033.5,555.5C 1029.39,557.388 1025.39,559.554 1021.5,562C 1019.5,562.667 1017.5,562.667 1015.5,562C 1013.59,560.878 1011.59,560.045 1009.5,559.5C 1011.5,554.961 1013.84,554.627 1016.5,558.5C 1017.82,554.614 1016.32,552.281 1012,551.5C 1010.39,552.101 1009.06,553.101 1008,554.5C 1004.75,552.216 1001.25,551.549 997.5,552.5C 997.018,551.584 996.685,550.584 996.5,549.5C 1001.44,544.755 1007.1,540.921 1013.5,538C 1015.81,537.503 1018.14,537.337 1020.5,537.5 Z"/></g>
<g><path style="opacity:1" fill="#293346" d="M 1089.5,559.5 C 1090.66,561.855 1091.66,564.188 1092.5,566.5C 1092.33,570.514 1092.5,574.514 1093,578.5C 1094.15,582.112 1094.98,585.778 1095.5,589.5C 1095.5,591.5 1095.5,593.5 1095.5,595.5C 1093.95,597.372 1091.95,598.372 1089.5,598.5C 1086.77,598.032 1084.1,597.365 1081.5,596.5C 1079.62,593.449 1077.45,593.115 1075,595.5C 1074.05,598.432 1073.55,601.432 1073.5,604.5C 1071.92,609.583 1071.25,614.916 1071.5,620.5C 1071.5,627.5 1071.5,634.5 1071.5,641.5C 1066.5,645.334 1061.17,648.667 1055.5,651.5C 1043.33,656.721 1031.33,656.721 1019.5,651.5C 1021.2,649.695 1022.03,647.361 1022,644.5C 1026.17,642.496 1028,639.163 1027.5,634.5C 1026.51,623.429 1025.01,612.429 1023,601.5C 1021.6,604.629 1019.93,607.629 1018,610.5C 1014.52,613.461 1011.69,616.794 1009.5,620.5C 1009.63,619.761 1009.46,619.094 1009,618.5C 1006.96,619.423 1004.79,619.756 1002.5,619.5C 995.687,620.188 991.52,617.188 990,610.5C 989.501,606.848 989.335,603.182 989.5,599.5C 989.604,597.297 990.27,595.297 991.5,593.5C 994.87,587.621 999.203,582.455 1004.5,578C 1011.13,575.186 1017.8,572.686 1024.5,570.5C 1026.95,569.773 1029.29,568.773 1031.5,567.5C 1041.07,573.132 1050.41,572.632 1059.5,566C 1061.38,563.769 1062.21,561.269 1062,558.5C 1057.41,558.303 1054.91,555.97 1054.5,551.5C 1056.82,551.008 1058.82,550.008 1060.5,548.5C 1073.22,544.026 1082.89,547.693 1089.5,559.5 Z"/></g>
<g><path style="opacity:1" fill="#c2daf2" d="M 924.5,551.5 C 928.273,551.263 931.94,551.763 935.5,553C 940.298,555.635 944.965,558.468 949.5,561.5C 950.614,562.723 950.781,564.056 950,565.5C 944.415,569.377 938.582,572.877 932.5,576C 927.72,577.03 923.387,576.03 919.5,573C 916.167,571 912.833,569 909.5,567C 906.679,564.283 907.013,561.95 910.5,560C 915.397,557.392 920.063,554.559 924.5,551.5 Z"/></g>
<g><path style="opacity:1" fill="#e5928a" d="M 1009.5,559.5 C 1008.88,559.917 1008.54,560.584 1008.5,561.5C 1011.14,565.27 1011.14,568.937 1008.5,572.5C 1004.68,573.981 1000.68,574.815 996.5,575C 993.48,580.233 991.146,585.733 989.5,591.5C 987.96,593.838 987.294,596.505 987.5,599.5C 983.278,603.627 978.278,606.794 972.5,609C 970.556,612.744 968.556,616.244 966.5,619.5C 966.5,616.167 966.5,612.833 966.5,609.5C 967.967,604.571 969.967,599.904 972.5,595.5C 974.071,593.365 975.404,591.032 976.5,588.5C 978.692,585.45 980.358,582.117 981.5,578.5C 982.338,578.158 982.672,577.492 982.5,576.5C 986.739,569.025 990.739,561.359 994.5,553.5C 995.391,552.89 996.391,552.557 997.5,552.5C 1001.25,551.549 1004.75,552.216 1008,554.5C 1009.06,553.101 1010.39,552.101 1012,551.5C 1016.32,552.281 1017.82,554.614 1016.5,558.5C 1013.84,554.627 1011.5,554.961 1009.5,559.5 Z"/></g>
<g><path style="opacity:1" fill="#c3daf2" d="M 1095.5,589.5 C 1094.98,585.778 1094.15,582.112 1093,578.5C 1092.5,574.514 1092.33,570.514 1092.5,566.5C 1101.1,562.533 1109.43,558.033 1117.5,553C 1118.83,552.833 1120.17,552.667 1121.5,552.5C 1128.68,554.501 1135.35,557.668 1141.5,562C 1144.34,565.159 1143.67,567.492 1139.5,569C 1125.39,577.386 1111.06,585.219 1096.5,592.5C 1096.74,591.209 1096.4,590.209 1095.5,589.5 Z"/></g>
<g><path style="opacity:1" fill="#c3d9f1" d="M 994.5,553.5 C 990.739,561.359 986.739,569.025 982.5,576.5C 978.732,573.775 974.732,571.275 970.5,569C 968.789,567.867 968.289,566.367 969,564.5C 974.415,560.875 979.915,557.375 985.5,554C 988.482,553.502 991.482,553.335 994.5,553.5 Z"/></g>
<g><path style="opacity:1" fill="#97b7e3" d="M 1033.5,555.5 C 1033.5,556.833 1033.5,558.167 1033.5,559.5C 1029.89,561.307 1026.22,563.14 1022.5,565C 1019.5,565.333 1016.5,565.667 1013.5,566C 1014.46,569.903 1012.79,572.07 1008.5,572.5C 1011.14,568.937 1011.14,565.27 1008.5,561.5C 1008.54,560.584 1008.88,559.917 1009.5,559.5C 1011.59,560.045 1013.59,560.878 1015.5,562C 1017.5,562.667 1019.5,562.667 1021.5,562C 1025.39,559.554 1029.39,557.388 1033.5,555.5 Z"/></g>
<g><path style="opacity:1" fill="#f6faf9" d="M 755.5,561.5 C 756.822,561.33 757.989,561.663 759,562.5C 760.421,568.929 758.088,573.262 752,575.5C 751.228,575.355 750.561,575.022 750,574.5C 748.571,568.7 750.404,564.367 755.5,561.5 Z"/></g>
<g><path style="opacity:1" fill="#b7cbe4" d="M 1033.5,564.5 C 1032.83,565.5 1032.17,566.5 1031.5,567.5C 1029.29,568.773 1026.95,569.773 1024.5,570.5C 1023.26,570.19 1023.26,569.69 1024.5,569C 1027.41,567.239 1030.41,565.739 1033.5,564.5 Z"/></g>
<g><path style="opacity:1" fill="#c2daf2" d="M 893.5,569.5 C 902.776,570.588 910.943,574.255 918,580.5C 918.667,581.833 918.667,583.167 918,584.5C 912.255,587.288 906.755,590.454 901.5,594C 898.5,594.667 895.5,594.667 892.5,594C 886.915,590.625 881.415,587.125 876,583.5C 875.333,582.5 875.333,581.5 876,580.5C 881.813,576.683 887.647,573.017 893.5,569.5 Z"/></g>
<g><path style="opacity:1" fill="#c3daf2" d="M 981.5,578.5 C 980.358,582.117 978.692,585.45 976.5,588.5C 972.886,590.307 969.22,592.14 965.5,594C 962.833,594.667 960.167,594.667 957.5,594C 952.833,591.333 948.167,588.667 943.5,586C 941.393,584.736 940.393,582.903 940.5,580.5C 945.018,577.495 949.684,574.662 954.5,572C 957.881,569.755 961.548,569.088 965.5,570C 970.729,573.113 976.062,575.947 981.5,578.5 Z"/></g>
<g><path style="opacity:1" fill="#c2daf2" d="M 1176.5,582.5 C 1176.49,584.017 1175.82,585.184 1174.5,586C 1169.17,589 1163.83,592 1158.5,595C 1155.5,595.667 1152.5,595.667 1149.5,595C 1143.92,591.625 1138.42,588.125 1133,584.5C 1132.52,583.552 1132.35,582.552 1132.5,581.5C 1139.35,577.138 1146.51,573.471 1154,570.5C 1162.35,573.04 1169.85,577.04 1176.5,582.5 Z"/></g>
<g><path style="opacity:1" fill="#83a9db" d="M 1033.5,559.5 C 1033.5,561.167 1033.5,562.833 1033.5,564.5C 1030.41,565.739 1027.41,567.239 1024.5,569C 1023.26,569.69 1023.26,570.19 1024.5,570.5C 1017.8,572.686 1011.13,575.186 1004.5,578C 999.203,582.455 994.87,587.621 991.5,593.5C 991.167,592.5 990.5,591.833 989.5,591.5C 991.146,585.733 993.48,580.233 996.5,575C 1000.68,574.815 1004.68,573.981 1008.5,572.5C 1012.79,572.07 1014.46,569.903 1013.5,566C 1016.5,565.667 1019.5,565.333 1022.5,565C 1026.22,563.14 1029.89,561.307 1033.5,559.5 Z"/></g>
<g><path style="opacity:1" fill="#c2daf2" d="M 938.5,586.5 C 943.605,589.892 948.938,593.059 954.5,596C 955.833,597.667 955.833,599.333 954.5,601C 949.167,604 943.833,607 938.5,610C 933.889,611.007 929.555,610.34 925.5,608C 921.5,605.667 917.5,603.333 913.5,601C 912.62,599.644 912.286,598.144 912.5,596.5C 918.353,592.828 924.353,589.328 930.5,586C 933.221,585.398 935.887,585.565 938.5,586.5 Z"/></g>
<g><path style="opacity:1" fill="#c2daf2" d="M 1129.5,586.5 C 1134.94,590.059 1140.61,593.392 1146.5,596.5C 1149.04,598.392 1149.04,600.225 1146.5,602C 1141.17,605 1135.83,608 1130.5,611C 1127.5,611.667 1124.5,611.667 1121.5,611C 1116.5,608 1111.5,605 1106.5,602C 1105.18,601.184 1104.51,600.017 1104.5,598.5C 1110.44,594.19 1116.77,590.357 1123.5,587C 1125.47,586.505 1127.47,586.338 1129.5,586.5 Z"/></g>
<g><path style="opacity:1" fill="#c2daf2" d="M 860.5,588.5 C 863.85,588.335 867.183,588.502 870.5,589C 875.167,591.667 879.833,594.333 884.5,597C 885.899,598.062 886.899,599.395 887.5,601C 881.452,605.368 875.118,609.368 868.5,613C 866.5,613.667 864.5,613.667 862.5,613C 856.5,609.667 850.5,606.333 844.5,603C 843.115,600.415 843.782,598.415 846.5,597C 851.397,594.392 856.063,591.559 860.5,588.5 Z"/></g>
<g><path style="opacity:1" fill="#c3d0e6" d="M 989.5,591.5 C 990.5,591.833 991.167,592.5 991.5,593.5C 990.27,595.297 989.604,597.297 989.5,599.5C 988.604,600.506 987.938,600.506 987.5,599.5C 987.294,596.505 987.96,593.838 989.5,591.5 Z"/></g>
<g><path style="opacity:1" fill="#bed2e9" d="M 1081.5,596.5 C 1082.3,598.042 1082.63,599.708 1082.5,601.5C 1079.78,603.281 1076.94,604.948 1074,606.5C 1073.54,605.906 1073.37,605.239 1073.5,604.5C 1073.55,601.432 1074.05,598.432 1075,595.5C 1077.45,593.115 1079.62,593.449 1081.5,596.5 Z"/></g>
<g><path style="opacity:1" fill="#f6b0ae" d="M 1095.5,595.5 C 1095.5,596.833 1095.5,598.167 1095.5,599.5C 1095.5,600.833 1095.5,602.167 1095.5,603.5C 1094.98,611.49 1094.64,619.49 1094.5,627.5C 1094.21,629.735 1094.54,631.735 1095.5,633.5C 1095.5,636.167 1095.5,638.833 1095.5,641.5C 1095.66,643.857 1095.5,646.19 1095,648.5C 1094.43,651.707 1092.59,653.374 1089.5,653.5C 1087.89,651.692 1087.56,649.692 1088.5,647.5C 1089.9,648.999 1090.57,648.666 1090.5,646.5C 1090.11,642.778 1088.44,639.778 1085.5,637.5C 1083.29,638.66 1081.29,639.993 1079.5,641.5C 1077.85,644.144 1075.85,646.477 1073.5,648.5C 1073.86,644.491 1074.36,640.491 1075,636.5C 1078.42,633.588 1081.25,630.254 1083.5,626.5C 1083.5,624.5 1083.5,622.5 1083.5,620.5C 1083.5,617.167 1083.5,613.833 1083.5,610.5C 1083.3,607.482 1082.96,604.482 1082.5,601.5C 1082.63,599.708 1082.3,598.042 1081.5,596.5C 1084.1,597.365 1086.77,598.032 1089.5,598.5C 1091.95,598.372 1093.95,597.372 1095.5,595.5 Z"/></g>
<g><path style="opacity:1" fill="#94b8e5" d="M 1132.5,581.5 C 1132.35,582.552 1132.52,583.552 1133,584.5C 1138.42,588.125 1143.92,591.625 1149.5,595C 1152.5,595.667 1155.5,595.667 1158.5,595C 1163.83,592 1169.17,589 1174.5,586C 1175.82,585.184 1176.49,584.017 1176.5,582.5C 1178.65,583.932 1178.98,585.765 1177.5,588C 1171.67,591.081 1166,594.415 1160.5,598C 1156.83,598.333 1153.17,598.667 1149.5,599C 1150.93,601.267 1150.6,603.267 1148.5,605C 1143.17,608 1137.83,611 1132.5,614C 1128.83,614.333 1125.17,614.667 1121.5,615C 1122.93,617.267 1122.6,619.267 1120.5,621C 1112.52,626.324 1104.19,630.491 1095.5,633.5C 1094.54,631.735 1094.21,629.735 1094.5,627.5C 1104.61,626.78 1113.28,622.78 1120.5,615.5C 1115.54,610.721 1109.87,606.888 1103.5,604C 1100.85,603.503 1098.19,603.336 1095.5,603.5C 1095.5,602.167 1095.5,600.833 1095.5,599.5C 1096.4,600.209 1096.74,601.209 1096.5,602.5C 1098.5,602.5 1100.5,602.5 1102.5,602.5C 1102.23,600.62 1102.9,599.287 1104.5,598.5C 1104.51,600.017 1105.18,601.184 1106.5,602C 1111.5,605 1116.5,608 1121.5,611C 1124.5,611.667 1127.5,611.667 1130.5,611C 1135.83,608 1141.17,605 1146.5,602C 1149.04,600.225 1149.04,598.392 1146.5,596.5C 1140.61,593.392 1134.94,590.059 1129.5,586.5C 1130.07,584.58 1131.07,582.913 1132.5,581.5 Z"/></g>
<g><path style="opacity:1" fill="#f6aeab" d="M 987.5,599.5 C 987.938,600.506 988.604,600.506 989.5,599.5C 989.335,603.182 989.501,606.848 990,610.5C 991.52,617.188 995.687,620.188 1002.5,619.5C 997.245,623.294 991.579,626.294 985.5,628.5C 984.5,628.5 983.5,628.5 982.5,628.5C 978.5,628.5 974.5,628.5 970.5,628.5C 969.542,628.047 968.708,627.381 968,626.5C 967.71,624.08 967.21,621.746 966.5,619.5C 968.556,616.244 970.556,612.744 972.5,609C 978.278,606.794 983.278,603.627 987.5,599.5 Z"/></g>
<g><path style="opacity:1" fill="#c3daf2" d="M 910.5,602.5 C 914.937,605.559 919.603,608.392 924.5,611C 927.21,612.46 927.876,614.46 926.5,617C 921.167,620 915.833,623 910.5,626C 907.923,627.25 905.257,627.584 902.5,627C 897.167,624 891.833,621 886.5,618C 884.963,616.89 884.297,615.39 884.5,613.5C 889.768,609.524 895.434,606.024 901.5,603C 904.482,602.502 907.482,602.335 910.5,602.5 Z"/></g>
<g><path style="opacity:1" fill="#1a202a" d="M 1019.5,651.5 C 1015.86,650.014 1012.53,648.014 1009.5,645.5C 1009.17,644.833 1008.83,644.167 1008.5,643.5C 1007.17,635.813 1007.5,628.146 1009.5,620.5C 1011.69,616.794 1014.52,613.461 1018,610.5C 1019.93,607.629 1021.6,604.629 1023,601.5C 1025.01,612.429 1026.51,623.429 1027.5,634.5C 1028,639.163 1026.17,642.496 1022,644.5C 1022.03,647.361 1021.2,649.695 1019.5,651.5 Z"/></g>
<g><path style="opacity:1" fill="#c3daf2" d="M 1095.5,603.5 C 1098.19,603.336 1100.85,603.503 1103.5,604C 1109.87,606.888 1115.54,610.721 1120.5,615.5C 1113.28,622.78 1104.61,626.78 1094.5,627.5C 1094.64,619.49 1094.98,611.49 1095.5,603.5 Z"/></g>
<g><path style="opacity:1" fill="#c2daf2" d="M 829.5,606.5 C 833.792,606.035 837.792,606.868 841.5,609C 845.5,611.333 849.5,613.667 853.5,616C 855.211,617.133 855.711,618.633 855,620.5C 848.302,625.516 840.969,629.182 833,631.5C 824.793,628.984 817.626,624.818 811.5,619C 811.759,617.739 812.426,616.739 813.5,616C 819.062,613.059 824.395,609.892 829.5,606.5 Z"/></g>
<g><path style="opacity:1" fill="#85acdd" d="M 1082.5,601.5 C 1082.96,604.482 1083.3,607.482 1083.5,610.5C 1074.33,613.691 1074.33,617.024 1083.5,620.5C 1083.5,622.5 1083.5,624.5 1083.5,626.5C 1079.47,624.487 1075.47,622.487 1071.5,620.5C 1071.25,614.916 1071.92,609.583 1073.5,604.5C 1073.37,605.239 1073.54,605.906 1074,606.5C 1076.94,604.948 1079.78,603.281 1082.5,601.5 Z"/></g>
<g><path style="opacity:1" fill="#c3daf2" d="M 966.5,609.5 C 966.5,612.833 966.5,616.167 966.5,619.5C 967.21,621.746 967.71,624.08 968,626.5C 968.708,627.381 969.542,628.047 970.5,628.5C 966.187,632.157 961.187,633.324 955.5,632C 951.159,628.828 946.492,626.161 941.5,624C 939.859,622.871 938.859,621.371 938.5,619.5C 943.768,615.524 949.434,612.024 955.5,609C 959.255,608.245 962.922,608.411 966.5,609.5 Z"/></g>
<g><path style="opacity:1" fill="#c1d8f2" d="M 1083.5,610.5 C 1083.5,613.833 1083.5,617.167 1083.5,620.5C 1074.33,617.024 1074.33,613.691 1083.5,610.5 Z"/></g>
<g><path style="opacity:1" fill="#c2daf2" d="M 881.5,618.5 C 886.605,621.892 891.938,625.059 897.5,628C 900.341,631.159 899.674,633.492 895.5,635C 890.659,637.921 885.659,640.588 880.5,643C 877.366,643.79 874.366,643.457 871.5,642C 866.666,638.748 861.666,635.748 856.5,633C 855.663,631.989 855.33,630.822 855.5,629.5C 861.353,625.828 867.353,622.328 873.5,619C 876.146,618.503 878.813,618.336 881.5,618.5 Z"/></g>
<g><path style="opacity:1" fill="#c2d7ef" d="M 1009.5,620.5 C 1007.5,628.146 1007.17,635.813 1008.5,643.5C 1000.09,641.879 992.59,638.213 986,632.5C 985.517,631.552 985.351,630.552 985.5,629.5C 985.5,629.167 985.5,628.833 985.5,628.5C 991.579,626.294 997.245,623.294 1002.5,619.5C 1004.79,619.756 1006.96,619.423 1009,618.5C 1009.46,619.094 1009.63,619.761 1009.5,620.5 Z"/></g>
<g><path style="opacity:0.97" fill="#92b7e5" d="M 1278.5,618.5 C 1278.67,623.844 1278.5,629.177 1278,634.5C 1276.83,635.667 1275.67,636.833 1274.5,638C 1207.3,677.098 1139.97,715.931 1072.5,754.5C 1071.97,749.704 1070.64,745.037 1068.5,740.5C 1070.31,740.509 1071.98,740.009 1073.5,739C 1137.24,701.601 1201.24,664.601 1265.5,628C 1270.29,625.289 1274.63,622.122 1278.5,618.5 Z"/></g>
<g><path style="opacity:1" fill="#c3d8f0" d="M 1071.5,620.5 C 1075.47,622.487 1079.47,624.487 1083.5,626.5C 1081.25,630.254 1078.42,633.588 1075,636.5C 1074.36,640.491 1073.86,644.491 1073.5,648.5C 1072.39,646.401 1071.72,644.067 1071.5,641.5C 1071.5,634.5 1071.5,627.5 1071.5,620.5 Z"/></g>
<g><path style="opacity:1" fill="#c2daf2" d="M 936.5,624.5 C 941.473,627.321 946.473,630.155 951.5,633C 952.899,634.062 953.899,635.395 954.5,637C 948.452,641.368 942.118,645.368 935.5,649C 931.947,649.598 928.614,648.931 925.5,647C 921.5,644.667 917.5,642.333 913.5,640C 911.859,638.871 910.859,637.371 910.5,635.5C 916.139,632.011 921.805,628.511 927.5,625C 930.482,624.502 933.482,624.335 936.5,624.5 Z"/></g>
<g><path style="opacity:1" fill="#c2daf2" d="M 798.5,624.5 C 800.857,624.337 803.19,624.503 805.5,625C 811.25,628.626 817.084,632.126 823,635.5C 823.781,636.944 823.614,638.277 822.5,639.5C 817.036,642.468 811.703,645.634 806.5,649C 803.5,649.667 800.5,649.667 797.5,649C 791.918,645.96 786.418,642.793 781,639.5C 780.333,638.167 780.333,636.833 781,635.5C 786.813,631.683 792.647,628.017 798.5,624.5 Z"/></g>
<g><path style="opacity:1" fill="#93b8e5" d="M 940.5,580.5 C 940.393,582.903 941.393,584.736 943.5,586C 948.167,588.667 952.833,591.333 957.5,594C 960.167,594.667 962.833,594.667 965.5,594C 969.22,592.14 972.886,590.307 976.5,588.5C 975.404,591.032 974.071,593.365 972.5,595.5C 972.565,595.062 972.399,594.728 972,594.5C 967.568,597.165 962.734,598.165 957.5,597.5C 957.66,599.199 957.494,600.866 957,602.5C 950.917,606.459 944.751,610.292 938.5,614C 935.123,614.369 931.79,614.369 928.5,614C 929.76,615.814 929.76,617.647 928.5,619.5C 922.63,623.2 916.63,626.7 910.5,630C 907.518,630.498 904.518,630.665 901.5,630.5C 901.739,632.467 901.406,634.301 900.5,636C 894.5,639.333 888.5,642.667 882.5,646C 878.779,646.678 875.112,646.511 871.5,645.5C 864.792,641.764 858.125,638.097 851.5,634.5C 852.975,632.993 854.309,631.327 855.5,629.5C 855.33,630.822 855.663,631.989 856.5,633C 861.666,635.748 866.666,638.748 871.5,642C 874.366,643.457 877.366,643.79 880.5,643C 885.659,640.588 890.659,637.921 895.5,635C 899.674,633.492 900.341,631.159 897.5,628C 891.938,625.059 886.605,621.892 881.5,618.5C 880.916,615.715 881.916,614.048 884.5,613.5C 884.297,615.39 884.963,616.89 886.5,618C 891.833,621 897.167,624 902.5,627C 905.257,627.584 907.923,627.25 910.5,626C 915.833,623 921.167,620 926.5,617C 927.876,614.46 927.21,612.46 924.5,611C 919.603,608.392 914.937,605.559 910.5,602.5C 908.955,599.803 909.621,597.803 912.5,596.5C 912.286,598.144 912.62,599.644 913.5,601C 917.5,603.333 921.5,605.667 925.5,608C 929.555,610.34 933.889,611.007 938.5,610C 943.833,607 949.167,604 954.5,601C 955.833,599.333 955.833,597.667 954.5,596C 948.938,593.059 943.605,589.892 938.5,586.5C 938.054,583.99 938.72,581.99 940.5,580.5 Z"/></g>
<g><path style="opacity:1" fill="#c3daf2" d="M 851.5,634.5 C 858.125,638.097 864.792,641.764 871.5,645.5C 871.5,645.833 871.5,646.167 871.5,646.5C 871.489,648.017 870.823,649.184 869.5,650C 863.157,654.006 856.49,657.173 849.5,659.5C 845.886,659.196 842.552,658.029 839.5,656C 836.167,654 832.833,652 829.5,650C 828.177,649.184 827.511,648.017 827.5,646.5C 834.442,640.362 842.442,636.362 851.5,634.5 Z"/></g>
<g><path style="opacity:1" fill="#c3daf2" d="M 980.5,634.5 C 986.523,637.348 992.523,640.515 998.5,644C 1001.32,646.717 1000.99,649.05 997.5,651C 992.341,653.412 987.341,656.079 982.5,659C 979.833,659.667 977.167,659.667 974.5,659C 969.002,656.085 963.668,652.919 958.5,649.5C 957.571,648.311 957.238,646.978 957.5,645.5C 964.569,640.465 972.236,636.798 980.5,634.5 Z"/></g>
<g><path style="opacity:1" fill="#e6938b" d="M 1089.5,653.5 C 1088.81,655.022 1087.64,656.022 1086,656.5C 1083,656.214 1079.83,656.214 1076.5,656.5C 1076.43,655.041 1076.77,653.708 1077.5,652.5C 1079.32,649.154 1079.99,645.487 1079.5,641.5C 1081.29,639.993 1083.29,638.66 1085.5,637.5C 1088.44,639.778 1090.11,642.778 1090.5,646.5C 1090.57,648.666 1089.9,648.999 1088.5,647.5C 1087.56,649.692 1087.89,651.692 1089.5,653.5 Z"/></g>
<g><path style="opacity:1" fill="#c3daf2" d="M 908.5,640.5 C 913.473,643.321 918.473,646.155 923.5,649C 926.21,650.46 926.876,652.46 925.5,655C 919.5,658.333 913.5,661.667 907.5,665C 903.88,665.841 900.546,665.174 897.5,663C 893.759,660.268 889.759,657.934 885.5,656C 883.963,654.89 883.297,653.39 883.5,651.5C 888.597,647.775 893.93,644.275 899.5,641C 902.482,640.502 905.482,640.335 908.5,640.5 Z"/></g>
<g><path style="opacity:0.994" fill="#395bb2" d="M 1071.5,641.5 C 1071.72,644.067 1072.39,646.401 1073.5,648.5C 1073.5,650.167 1073.5,651.833 1073.5,653.5C 1069.74,682.341 1068.07,711.341 1068.5,740.5C 1070.64,745.037 1071.97,749.704 1072.5,754.5C 1071.78,768.532 1070.61,782.532 1069,796.5C 1068.77,797.737 1068.27,798.737 1067.5,799.5C 1062.51,798.874 1057.51,797.708 1052.5,796C 1049.04,794.357 1046.04,792.19 1043.5,789.5C 1043.65,783.767 1044.31,778.1 1045.5,772.5C 1046.34,772.158 1046.67,771.492 1046.5,770.5C 1045.83,765.5 1045.17,760.5 1044.5,755.5C 1045.42,746.089 1044.09,737.089 1040.5,728.5C 1044.6,708.691 1049.43,689.025 1055,669.5C 1055.5,663.509 1055.67,657.509 1055.5,651.5C 1061.17,648.667 1066.5,645.334 1071.5,641.5 Z"/></g>
<g><path style="opacity:1" fill="#c2daf2" d="M 765.5,643.5 C 770.121,642.993 774.454,643.826 778.5,646C 782.241,648.732 786.241,651.066 790.5,653C 791.554,654.388 791.72,655.888 791,657.5C 785.239,661.633 779.073,665.133 772.5,668C 768.88,668.841 765.546,668.174 762.5,666C 758.5,663.667 754.5,661.333 750.5,659C 748.398,657.267 748.065,655.267 749.5,653C 755.062,650.059 760.395,646.892 765.5,643.5 Z"/></g>
<g><path style="opacity:1" fill="#84aadd" d="M 1079.5,641.5 C 1079.99,645.487 1079.32,649.154 1077.5,652.5C 1076.17,652.833 1074.83,653.167 1073.5,653.5C 1073.5,651.833 1073.5,650.167 1073.5,648.5C 1075.85,646.477 1077.85,644.144 1079.5,641.5 Z"/></g>
<g><path style="opacity:0.999" fill="#4061b5" d="M 1009.5,645.5 C 1012.53,648.014 1015.86,650.014 1019.5,651.5C 1031.33,656.721 1043.33,656.721 1055.5,651.5C 1055.67,657.509 1055.5,663.509 1055,669.5C 1049.43,689.025 1044.6,708.691 1040.5,728.5C 1038.58,735.928 1038.08,743.595 1039,751.5C 1039.24,753.852 1040.07,755.852 1041.5,757.5C 1043.11,761.732 1044.45,766.066 1045.5,770.5C 1045.5,771.167 1045.5,771.833 1045.5,772.5C 1044.31,778.1 1043.65,783.767 1043.5,789.5C 1042.52,793.634 1042.18,797.968 1042.5,802.5C 1042.5,803.5 1042.5,804.5 1042.5,805.5C 1042.5,808.5 1042.5,811.5 1042.5,814.5C 1038.76,818.35 1034.43,819.183 1029.5,817C 1022.41,813.631 1018.07,808.131 1016.5,800.5C 1017.65,796.192 1017.65,791.859 1016.5,787.5C 1017.32,780.385 1016.99,773.385 1015.5,766.5C 1015.51,755.474 1013.68,744.807 1010,734.5C 1008.13,720.97 1005.97,707.637 1003.5,694.5C 1003.5,692.5 1003.5,690.5 1003.5,688.5C 1003.5,687.167 1003.5,685.833 1003.5,684.5C 1005.04,674.139 1006.71,663.806 1008.5,653.5C 1008.45,651.097 1008.78,648.764 1009.5,646.5C 1009.5,646.167 1009.5,645.833 1009.5,645.5 Z"/></g>
<g><path style="opacity:1" fill="#c2daf2" d="M 826.5,651.5 C 830.937,654.559 835.603,657.392 840.5,660C 843.73,661.724 844.064,663.724 841.5,666C 836.167,669 830.833,672 825.5,675C 822.5,675.667 819.5,675.667 816.5,675C 811.833,672.333 807.167,669.667 802.5,667C 800.859,665.871 799.859,664.371 799.5,662.5C 805.437,658.19 811.77,654.357 818.5,651C 821.221,650.398 823.887,650.565 826.5,651.5 Z"/></g>
<g><path style="opacity:1" fill="#c3daf2" d="M 953.5,650.5 C 959.104,653.639 964.771,656.806 970.5,660C 972.602,661.733 972.935,663.733 971.5,666C 965.911,668.599 960.577,671.599 955.5,675C 951.705,675.837 948.039,675.504 944.5,674C 940,670.915 935.333,668.082 930.5,665.5C 929.571,664.311 929.238,662.978 929.5,661.5C 935.353,657.828 941.353,654.328 947.5,651C 949.473,650.505 951.473,650.338 953.5,650.5 Z"/></g>
<g><path style="opacity:1" fill="#c3daf2" d="M 1008.5,653.5 C 1006.71,663.806 1005.04,674.139 1003.5,684.5C 977.861,699.322 952.194,714.155 926.5,729C 923.5,729.667 920.5,729.667 917.5,729C 912.167,726 906.833,723 901.5,720C 900.663,718.989 900.33,717.822 900.5,716.5C 901.574,715.115 902.907,713.949 904.5,713C 939.072,692.911 973.739,673.078 1008.5,653.5 Z"/></g>
<g><path style="opacity:1" fill="#c3daf2" d="M 880.5,656.5 C 885.437,659.306 890.437,662.139 895.5,665C 899.659,668.199 899.325,670.865 894.5,673C 889.659,675.921 884.659,678.588 879.5,681C 875.091,681.805 871.091,680.805 867.5,678C 864.167,676 860.833,674 857.5,672C 855.963,670.89 855.297,669.39 855.5,667.5C 860.768,663.524 866.434,660.024 872.5,657C 875.146,656.503 877.813,656.336 880.5,656.5 Z"/></g>
<g><path style="opacity:1" fill="#c3daf2" d="M 734.5,661.5 C 743.792,662.561 751.958,666.227 759,672.5C 759.781,673.944 759.614,675.277 758.5,676.5C 751.897,680.796 744.897,684.129 737.5,686.5C 729.928,684.296 723.094,680.629 717,675.5C 716.333,674.5 716.333,673.5 717,672.5C 722.813,668.683 728.647,665.017 734.5,661.5 Z"/></g>
<g><path style="opacity:1" fill="#93b8e5" d="M 827.5,646.5 C 827.511,648.017 828.177,649.184 829.5,650C 832.833,652 836.167,654 839.5,656C 842.552,658.029 845.886,659.196 849.5,659.5C 856.49,657.173 863.157,654.006 869.5,650C 870.823,649.184 871.489,648.017 871.5,646.5C 873.377,647.659 873.877,649.326 873,651.5C 867.084,654.874 861.25,658.374 855.5,662C 851.833,662.333 848.167,662.667 844.5,663C 845.935,665.267 845.602,667.267 843.5,669C 837.5,672.333 831.5,675.667 825.5,679C 822.854,679.497 820.187,679.664 817.5,679.5C 817.657,680.873 817.49,682.207 817,683.5C 810.539,687.981 803.706,691.814 796.5,695C 793.46,695.32 790.46,695.32 787.5,695C 789.211,696.133 789.711,697.633 789,699.5C 781.265,706.121 772.431,710.121 762.5,711.5C 762.657,712.873 762.49,714.207 762,715.5C 756.415,719.377 750.582,722.877 744.5,726C 740.5,726.667 736.5,726.667 732.5,726C 727.833,723.333 723.167,720.667 718.5,718C 716.423,716.924 715.09,715.257 714.5,713C 714.639,711.699 715.305,710.866 716.5,710.5C 716.511,712.017 717.177,713.184 718.5,714C 723.833,717 729.167,720 734.5,723C 737.167,723.667 739.833,723.667 742.5,723C 747.833,720 753.167,717 758.5,714C 761.341,710.841 760.674,708.508 756.5,707C 751.19,703.849 745.857,701.015 740.5,698.5C 741.143,696.924 742.143,695.59 743.5,694.5C 743.297,696.39 743.963,697.89 745.5,699C 750.833,702 756.167,705 761.5,708C 763.833,708.667 766.167,708.667 768.5,708C 773.833,705 779.167,702 784.5,699C 787.321,696.283 786.987,693.95 783.5,692C 778.437,689.139 773.437,686.306 768.5,683.5C 769.065,681.58 770.065,679.913 771.5,678.5C 771.33,679.822 771.663,680.989 772.5,682C 778.5,685.333 784.5,688.667 790.5,692C 792.5,692.667 794.5,692.667 796.5,692C 802.331,688.919 807.998,685.585 813.5,682C 814.833,680.333 814.833,678.667 813.5,677C 807.938,674.059 802.605,670.892 797.5,667.5C 797.12,665.302 797.787,663.635 799.5,662.5C 799.859,664.371 800.859,665.871 802.5,667C 807.167,669.667 811.833,672.333 816.5,675C 819.5,675.667 822.5,675.667 825.5,675C 830.833,672 836.167,669 841.5,666C 844.064,663.724 843.73,661.724 840.5,660C 835.603,657.392 830.937,654.559 826.5,651.5C 824.82,649.274 825.153,647.607 827.5,646.5 Z"/></g>
<g><path style="opacity:1" fill="#c3daf2" d="M 797.5,667.5 C 802.605,670.892 807.938,674.059 813.5,677C 814.833,678.667 814.833,680.333 813.5,682C 807.998,685.585 802.331,688.919 796.5,692C 794.5,692.667 792.5,692.667 790.5,692C 784.5,688.667 778.5,685.333 772.5,682C 771.663,680.989 771.33,679.822 771.5,678.5C 779.039,672.061 787.705,668.394 797.5,667.5 Z"/></g>
<g><path style="opacity:1" fill="#c3daf2" d="M 924.5,666.5 C 931.268,669.473 937.768,673.14 944,677.5C 944.72,679.112 944.554,680.612 943.5,682C 938.167,685 932.833,688 927.5,691C 924.5,691.667 921.5,691.667 918.5,691C 913.167,688 907.833,685 902.5,682C 901.663,680.989 901.33,679.822 901.5,678.5C 908.222,672.798 915.889,668.798 924.5,666.5 Z"/></g>
<g><path style="opacity:1" fill="#93b8e5" d="M 938.5,619.5 C 938.859,621.371 939.859,622.871 941.5,624C 946.492,626.161 951.159,628.828 955.5,632C 961.187,633.324 966.187,632.157 970.5,628.5C 974.5,628.5 978.5,628.5 982.5,628.5C 976.046,629.55 970.046,632.05 964.5,636C 961.854,636.497 959.187,636.664 956.5,636.5C 956.822,638.722 956.155,640.556 954.5,642C 948.669,645.081 943.002,648.415 937.5,652C 934.123,652.369 930.79,652.369 927.5,652C 928.76,653.814 928.76,655.647 927.5,657.5C 922.036,660.468 916.703,663.634 911.5,667C 907.974,668.337 904.308,668.837 900.5,668.5C 900.739,670.467 900.406,672.301 899.5,674C 895.241,675.934 891.241,678.268 887.5,681C 882.901,683.867 877.901,685.034 872.5,684.5C 872.739,686.467 872.406,688.301 871.5,690C 865.5,693.333 859.5,696.667 853.5,700C 850.5,700.333 847.5,700.667 844.5,701C 845.517,702.049 845.684,703.216 845,704.5C 839.585,708.125 834.085,711.625 828.5,715C 824.637,716.354 820.637,716.854 816.5,716.5C 816.896,719.044 816.229,721.211 814.5,723C 801.662,730.587 788.662,737.92 775.5,745C 772.5,745.667 769.5,745.667 766.5,745C 761.341,742.588 756.341,739.921 751.5,737C 749.154,735.987 747.487,734.321 746.5,732C 746.978,730.358 747.978,729.191 749.5,728.5C 749.297,730.39 749.963,731.89 751.5,733C 756.833,736 762.167,739 767.5,742C 771.452,742.912 775.119,742.245 778.5,740C 790.583,733.21 802.416,726.044 814,718.5C 814.684,717.216 814.517,716.049 813.5,715C 807.769,711.475 802.103,707.975 796.5,704.5C 796.273,702.067 797.273,700.401 799.5,699.5C 799.297,701.39 799.963,702.89 801.5,704C 806.5,707 811.5,710 816.5,713C 819.928,713.701 823.262,713.368 826.5,712C 831.167,709.333 835.833,706.667 840.5,704C 843.167,702 843.167,700 840.5,698C 834.938,695.059 829.605,691.892 824.5,688.5C 824.273,686.067 825.273,684.401 827.5,683.5C 827.297,685.39 827.963,686.89 829.5,688C 834.833,691 840.167,694 845.5,697C 847.833,697.667 850.167,697.667 852.5,697C 857.833,694 863.167,691 868.5,688C 871.167,686 871.167,684 868.5,682C 862.938,679.059 857.605,675.892 852.5,672.5C 852.259,669.966 853.259,668.3 855.5,667.5C 855.297,669.39 855.963,670.89 857.5,672C 860.833,674 864.167,676 867.5,678C 871.091,680.805 875.091,681.805 879.5,681C 884.659,678.588 889.659,675.921 894.5,673C 899.325,670.865 899.659,668.199 895.5,665C 890.437,662.139 885.437,659.306 880.5,656.5C 879.916,653.715 880.916,652.048 883.5,651.5C 883.297,653.39 883.963,654.89 885.5,656C 889.759,657.934 893.759,660.268 897.5,663C 900.546,665.174 903.88,665.841 907.5,665C 913.5,661.667 919.5,658.333 925.5,655C 926.876,652.46 926.21,650.46 923.5,649C 918.473,646.155 913.473,643.321 908.5,640.5C 908.12,638.302 908.787,636.635 910.5,635.5C 910.859,637.371 911.859,638.871 913.5,640C 917.5,642.333 921.5,644.667 925.5,647C 928.614,648.931 931.947,649.598 935.5,649C 942.118,645.368 948.452,641.368 954.5,637C 953.899,635.395 952.899,634.062 951.5,633C 946.473,630.155 941.473,627.321 936.5,624.5C 936.12,622.302 936.787,620.635 938.5,619.5 Z"/></g>
<g><path style="opacity:1" fill="#c3daf2" d="M 852.5,672.5 C 857.605,675.892 862.938,679.059 868.5,682C 871.167,684 871.167,686 868.5,688C 863.167,691 857.833,694 852.5,697C 850.167,697.667 847.833,697.667 845.5,697C 840.167,694 834.833,691 829.5,688C 827.963,686.89 827.297,685.39 827.5,683.5C 833.103,680.025 838.769,676.525 844.5,673C 847.146,672.503 849.813,672.336 852.5,672.5 Z"/></g>
<g><path style="opacity:1" fill="#93b8e5" d="M 985.5,629.5 C 985.351,630.552 985.517,631.552 986,632.5C 992.59,638.213 1000.09,641.879 1008.5,643.5C 1008.83,644.167 1009.17,644.833 1009.5,645.5C 1009.5,645.833 1009.5,646.167 1009.5,646.5C 1007.14,646.337 1004.81,646.503 1002.5,647C 1003.52,648.049 1003.68,649.216 1003,650.5C 997.253,654.959 991.086,658.793 984.5,662C 981.183,662.498 977.85,662.665 974.5,662.5C 974.799,664.604 974.466,666.604 973.5,668.5C 967.833,671.667 962.167,674.833 956.5,678C 953.118,678.176 949.785,678.676 946.5,679.5C 947.734,681.398 947.401,683.065 945.5,684.5C 939.63,688.2 933.63,691.7 927.5,695C 924.854,695.497 922.187,695.664 919.5,695.5C 919.822,697.722 919.155,699.556 917.5,701C 911.5,704.333 905.5,707.667 899.5,711C 896.77,711.728 894.103,711.562 891.5,710.5C 890.548,711.533 890.548,712.7 891.5,714C 891.241,715.261 890.574,716.261 889.5,717C 883.397,720.77 877.063,724.103 870.5,727C 867.833,727.667 865.167,727.667 862.5,727C 857.5,724.167 852.5,721.333 847.5,718.5C 846.893,718.624 846.56,718.957 846.5,719.5C 845.29,719.068 844.29,718.401 843.5,717.5C 843.794,715.724 843.96,713.724 844,711.5C 844.383,710.944 844.883,710.611 845.5,710.5C 845.33,711.822 845.663,712.989 846.5,714C 852.963,718.565 859.963,722.065 867.5,724.5C 875.588,721.624 882.922,717.457 889.5,712C 889.241,710.739 888.574,709.739 887.5,709C 882.167,706 876.833,703 871.5,700C 869.19,699.503 866.857,699.337 864.5,699.5C 866.265,698.539 868.265,698.205 870.5,698.5C 870.468,696.381 871.468,695.048 873.5,694.5C 873.33,695.822 873.663,696.989 874.5,698C 879.833,701 885.167,704 890.5,707C 893.5,707.667 896.5,707.667 899.5,707C 904.833,704 910.167,701 915.5,698C 916.833,696.333 916.833,694.667 915.5,693C 909.938,690.059 904.605,686.892 899.5,683.5C 899.077,681.219 899.744,679.552 901.5,678.5C 901.33,679.822 901.663,680.989 902.5,682C 907.833,685 913.167,688 918.5,691C 921.5,691.667 924.5,691.667 927.5,691C 932.833,688 938.167,685 943.5,682C 944.554,680.612 944.72,679.112 944,677.5C 937.768,673.14 931.268,669.473 924.5,666.5C 926,664.778 927.667,663.112 929.5,661.5C 929.238,662.978 929.571,664.311 930.5,665.5C 935.333,668.082 940,670.915 944.5,674C 948.039,675.504 951.705,675.837 955.5,675C 960.577,671.599 965.911,668.599 971.5,666C 972.935,663.733 972.602,661.733 970.5,660C 964.771,656.806 959.104,653.639 953.5,650.5C 954.128,648.338 955.461,646.672 957.5,645.5C 957.238,646.978 957.571,648.311 958.5,649.5C 963.668,652.919 969.002,656.085 974.5,659C 977.167,659.667 979.833,659.667 982.5,659C 987.341,656.079 992.341,653.412 997.5,651C 1000.99,649.05 1001.32,646.717 998.5,644C 992.523,640.515 986.523,637.348 980.5,634.5C 982,632.778 983.667,631.112 985.5,629.5 Z"/></g>
<g><path style="opacity:1" fill="#c2daf2" d="M 703.5,679.5 C 707.059,679.408 710.392,680.241 713.5,682C 717.5,684.333 721.5,686.667 725.5,689C 727.329,690.113 728.163,691.613 728,693.5C 721.747,697.711 715.247,701.545 708.5,705C 704.557,705.245 700.89,704.245 697.5,702C 694.167,700 690.833,698 687.5,696C 684.79,694.54 684.124,692.54 685.5,690C 691.727,686.726 697.727,683.226 703.5,679.5 Z"/></g>
<g><path style="opacity:1" fill="#c3daf2" d="M 768.5,683.5 C 773.437,686.306 778.437,689.139 783.5,692C 786.987,693.95 787.321,696.283 784.5,699C 779.167,702 773.833,705 768.5,708C 766.167,708.667 763.833,708.667 761.5,708C 756.167,705 750.833,702 745.5,699C 743.963,697.89 743.297,696.39 743.5,694.5C 749.308,690.759 755.308,687.259 761.5,684C 763.81,683.503 766.143,683.337 768.5,683.5 Z"/></g>
<g><path style="opacity:1" fill="#c3daf2" d="M 899.5,683.5 C 904.605,686.892 909.938,690.059 915.5,693C 916.833,694.667 916.833,696.333 915.5,698C 910.167,701 904.833,704 899.5,707C 896.5,707.667 893.5,707.667 890.5,707C 885.167,704 879.833,701 874.5,698C 873.663,696.989 873.33,695.822 873.5,694.5C 878.768,690.524 884.434,687.024 890.5,684C 893.482,683.502 896.482,683.335 899.5,683.5 Z"/></g>
<g><path style="opacity:1" fill="#93b7e5" d="M 1003.5,684.5 C 1003.5,685.833 1003.5,687.167 1003.5,688.5C 977.658,703.588 951.658,718.422 925.5,733C 922.833,733.667 920.167,733.667 917.5,733C 912.833,730.333 908.167,727.667 903.5,725C 901.024,723.691 899.024,721.858 897.5,719.5C 897.879,717.787 898.879,716.787 900.5,716.5C 900.33,717.822 900.663,718.989 901.5,720C 906.833,723 912.167,726 917.5,729C 920.5,729.667 923.5,729.667 926.5,729C 952.194,714.155 977.861,699.322 1003.5,684.5 Z"/></g>
<g><path style="opacity:1" fill="#c3daf2" d="M 824.5,688.5 C 829.605,691.892 834.938,695.059 840.5,698C 843.167,700 843.167,702 840.5,704C 835.833,706.667 831.167,709.333 826.5,712C 823.262,713.368 819.928,713.701 816.5,713C 811.5,710 806.5,707 801.5,704C 799.963,702.89 799.297,701.39 799.5,699.5C 805.308,695.759 811.308,692.259 817.5,689C 819.81,688.503 822.143,688.337 824.5,688.5 Z"/></g>
<g><path style="opacity:1" fill="#c3daf2" d="M 740.5,698.5 C 745.857,701.015 751.19,703.849 756.5,707C 760.674,708.508 761.341,710.841 758.5,714C 753.167,717 747.833,720 742.5,723C 739.833,723.667 737.167,723.667 734.5,723C 729.167,720 723.833,717 718.5,714C 717.177,713.184 716.511,712.017 716.5,710.5C 722.437,706.19 728.77,702.357 735.5,699C 737.134,698.506 738.801,698.34 740.5,698.5 Z"/></g>
<g><path style="opacity:1" fill="#c2daf2" d="M 864.5,699.5 C 866.857,699.337 869.19,699.503 871.5,700C 876.833,703 882.167,706 887.5,709C 888.574,709.739 889.241,710.739 889.5,712C 882.922,717.457 875.588,721.624 867.5,724.5C 859.963,722.065 852.963,718.565 846.5,714C 845.663,712.989 845.33,711.822 845.5,710.5C 851.57,706.442 857.903,702.775 864.5,699.5 Z"/></g>
<g><path style="opacity:0.972" fill="#92b7e5" d="M 651.5,699.5 C 652.614,702.449 654.614,704.615 657.5,706C 730.833,751 804.167,796 877.5,841C 888.919,842.302 899.585,839.968 909.5,834C 943.241,813.934 977.241,794.267 1011.5,775C 1015.05,773.323 1016.38,770.49 1015.5,766.5C 1016.99,773.385 1017.32,780.385 1016.5,787.5C 979.058,808.724 941.725,830.224 904.5,852C 895.567,856.063 886.233,857.396 876.5,856C 801.247,810.126 726.414,763.626 652,716.5C 651.8,712.247 651.3,708.08 650.5,704C 650.519,702.479 650.852,700.979 651.5,699.5 Z"/></g>
<g><path style="opacity:1" fill="#c3daf2" d="M 796.5,704.5 C 802.103,707.975 807.769,711.475 813.5,715C 814.517,716.049 814.684,717.216 814,718.5C 802.416,726.044 790.583,733.21 778.5,740C 775.119,742.245 771.452,742.912 767.5,742C 762.167,739 756.833,736 751.5,733C 749.963,731.89 749.297,730.39 749.5,728.5C 761.271,721.108 773.271,713.941 785.5,707C 788.87,704.922 792.537,704.089 796.5,704.5 Z"/></g>
<g><path style="opacity:1" fill="#c3daf2" d="M 843.5,717.5 C 844.29,718.401 845.29,719.068 846.5,719.5C 851.001,721.916 855.334,724.583 859.5,727.5C 859.67,728.822 859.337,729.989 858.5,731C 841.167,741 823.833,751 806.5,761C 802.091,761.805 798.091,760.805 794.5,758C 790.332,755.75 786.332,753.25 782.5,750.5C 781.614,749.675 781.281,748.675 781.5,747.5C 798.437,737.359 815.437,727.193 832.5,717C 836.221,716.322 839.888,716.489 843.5,717.5 Z"/></g>
<g><path style="opacity:1" fill="#c2daf2" d="M 913.5,733.5 C 913.548,736.292 912.215,738.125 909.5,739C 903.722,742.808 897.555,745.641 891,747.5C 884.224,745.029 877.724,741.863 871.5,738C 869.963,736.89 869.297,735.39 869.5,733.5C 876.421,728.623 883.921,724.956 892,722.5C 899.632,725.233 906.798,728.899 913.5,733.5 Z"/></g>
<g><path style="opacity:1" fill="#92b7e5" d="M 859.5,727.5 C 862.3,730.238 861.966,732.738 858.5,735C 841.663,744.92 824.663,754.586 807.5,764C 804.833,764.667 802.167,764.667 799.5,764C 792.479,760.964 785.979,757.13 780,752.5C 779.123,750.326 779.623,748.659 781.5,747.5C 781.281,748.675 781.614,749.675 782.5,750.5C 786.332,753.25 790.332,755.75 794.5,758C 798.091,760.805 802.091,761.805 806.5,761C 823.833,751 841.167,741 858.5,731C 859.337,729.989 859.67,728.822 859.5,727.5 Z"/></g>
<g><path style="opacity:1" fill="#bbd2ef" d="M 1040.5,728.5 C 1044.09,737.089 1045.42,746.089 1044.5,755.5C 1043.5,756.167 1042.5,756.833 1041.5,757.5C 1040.07,755.852 1039.24,753.852 1039,751.5C 1038.08,743.595 1038.58,735.928 1040.5,728.5 Z"/></g>
<g><path style="opacity:1" fill="#c3daf2" d="M 866.5,738.5 C 873.505,741.676 879.838,745.843 885.5,751C 885.241,752.261 884.574,753.261 883.5,754C 878.833,756.667 874.167,759.333 869.5,762C 866.262,763.368 862.928,763.701 859.5,763C 854.167,760 848.833,757 843.5,754C 842.62,752.644 842.286,751.144 842.5,749.5C 848.273,745.774 854.273,742.274 860.5,739C 862.473,738.505 864.473,738.338 866.5,738.5 Z"/></g>
<g><path style="opacity:1" fill="#93b8e5" d="M 869.5,733.5 C 869.297,735.39 869.963,736.89 871.5,738C 877.724,741.863 884.224,745.029 891,747.5C 897.555,745.641 903.722,742.808 909.5,739C 912.215,738.125 913.548,736.292 913.5,733.5C 915.687,735.282 916.02,737.448 914.5,740C 908.5,743.333 902.5,746.667 896.5,750C 893.518,750.498 890.518,750.665 887.5,750.5C 887.739,752.467 887.406,754.301 886.5,756C 881.334,758.748 876.334,761.748 871.5,765C 867.637,766.354 863.637,766.854 859.5,766.5C 859.896,769.044 859.229,771.211 857.5,773C 850.61,777.196 843.443,780.696 836,783.5C 827.947,781.057 820.447,777.391 813.5,772.5C 810.665,769.68 810.999,767.347 814.5,765.5C 814.286,767.144 814.62,768.644 815.5,770C 820.833,773 826.167,776 831.5,779C 834.167,779.667 836.833,779.667 839.5,779C 843.833,776.667 848.167,774.333 852.5,772C 858.525,769.334 858.859,766.334 853.5,763C 848.437,760.139 843.437,757.306 838.5,754.5C 839.128,752.338 840.461,750.672 842.5,749.5C 842.286,751.144 842.62,752.644 843.5,754C 848.833,757 854.167,760 859.5,763C 862.928,763.701 866.262,763.368 869.5,762C 874.167,759.333 878.833,756.667 883.5,754C 884.574,753.261 885.241,752.261 885.5,751C 879.838,745.843 873.505,741.676 866.5,738.5C 867.065,736.58 868.065,734.913 869.5,733.5 Z"/></g>
<g><path style="opacity:1" fill="#c3daf2" d="M 838.5,754.5 C 843.437,757.306 848.437,760.139 853.5,763C 858.859,766.334 858.525,769.334 852.5,772C 848.167,774.333 843.833,776.667 839.5,779C 836.833,779.667 834.167,779.667 831.5,779C 826.167,776 820.833,773 815.5,770C 814.62,768.644 814.286,767.144 814.5,765.5C 820.308,761.759 826.308,758.259 832.5,755C 834.473,754.505 836.473,754.338 838.5,754.5 Z"/></g>
<g><path style="opacity:1" fill="#8cb1e2" d="M 1044.5,755.5 C 1045.17,760.5 1045.83,765.5 1046.5,770.5C 1046.17,770.5 1045.83,770.5 1045.5,770.5C 1044.45,766.066 1043.11,761.732 1041.5,757.5C 1042.5,756.833 1043.5,756.167 1044.5,755.5 Z"/></g>
<g><path style="opacity:0.993" fill="#32887f" d="M 1043.5,789.5 C 1046.04,792.19 1049.04,794.357 1052.5,796C 1057.51,797.708 1062.51,798.874 1067.5,799.5C 1068.34,801.379 1068.67,803.379 1068.5,805.5C 1066.3,808.197 1063.46,809.863 1060,810.5C 1053.7,808.768 1047.87,806.101 1042.5,802.5C 1042.18,797.968 1042.52,793.634 1043.5,789.5 Z"/></g>
<g><path style="opacity:0.983" fill="#32887f" d="M 1016.5,800.5 C 1018.07,808.131 1022.41,813.631 1029.5,817C 1034.43,819.183 1038.76,818.35 1042.5,814.5C 1042.5,816.167 1042.5,817.833 1042.5,819.5C 1042.55,822.292 1041.21,824.125 1038.5,825C 1033.76,825.726 1029.09,825.393 1024.5,824C 1016.9,821.198 1009.56,817.865 1002.5,814C 1000.74,810.757 1000.07,807.257 1000.5,803.5C 1000.82,799.849 1002.82,797.849 1006.5,797.5C 1009.85,798.506 1013.18,799.506 1016.5,800.5 Z"/></g>
<g><path style="opacity:0.914" fill="#451c1c" d="M 1042.5,802.5 C 1047.87,806.101 1053.7,808.768 1060,810.5C 1063.46,809.863 1066.3,808.197 1068.5,805.5C 1068.55,812.161 1065.21,815.827 1058.5,816.5C 1053.61,815.97 1049.44,813.97 1046,810.5C 1045.67,809.167 1045.33,807.833 1045,806.5C 1044.33,805.748 1043.5,805.414 1042.5,805.5C 1042.5,804.5 1042.5,803.5 1042.5,802.5 Z"/></g>
<g><path style="opacity:0.894" fill="#451c1b" d="M 1000.5,803.5 C 1000.07,807.257 1000.74,810.757 1002.5,814C 1009.56,817.865 1016.9,821.198 1024.5,824C 1029.09,825.393 1033.76,825.726 1038.5,825C 1041.21,824.125 1042.55,822.292 1042.5,819.5C 1044.88,826.714 1042.22,830.714 1034.5,831.5C 1030.22,831.264 1026.22,830.097 1022.5,828C 1021.83,826.667 1021.17,825.333 1020.5,824C 1013.03,821.68 1006.19,818.18 1000,813.5C 999.192,809.973 999.359,806.64 1000.5,803.5 Z"/></g>
</svg>
